<mxfile host="app.diagrams.net" modified="2022-02-01T07:21:34.065Z" agent="5.0 (Windows NT 10.0; Win64; x64) AppleWebKit/537.36 (KHTML, like Gecko) Chrome/96.0.4664.93 Safari/537.36" etag="zFuPRxQlU0x5ZjyMdjG1" version="16.0.3" type="github">
  <diagram id="Ehf6K-8b_N_PcfSkCcOT" name="Page-1">
    <mxGraphModel dx="1673" dy="896" grid="1" gridSize="10" guides="1" tooltips="1" connect="1" arrows="1" fold="1" page="1" pageScale="1" pageWidth="1654" pageHeight="2336" math="0" shadow="0">
      <root>
        <mxCell id="0" />
        <mxCell id="1" parent="0" />
        <mxCell id="2IMKjfMsFiyMc3P6ZTSg-109" value="" style="rounded=0;whiteSpace=wrap;html=1;fontSize=15;" vertex="1" parent="1">
          <mxGeometry x="220" y="330" width="1210" height="900" as="geometry" />
        </mxCell>
        <mxCell id="2IMKjfMsFiyMc3P6ZTSg-38" value="" style="rounded=1;whiteSpace=wrap;html=1;dashed=1;fontSize=15;" vertex="1" parent="1">
          <mxGeometry x="257" y="465" width="160" height="390" as="geometry" />
        </mxCell>
        <mxCell id="2IMKjfMsFiyMc3P6ZTSg-1" value="企鹅号图文" style="rounded=1;whiteSpace=wrap;html=1;fontSize=15;fillColor=#dae8fc;strokeColor=#6c8ebf;" vertex="1" parent="1">
          <mxGeometry x="277" y="525" width="120" height="60" as="geometry" />
        </mxCell>
        <mxCell id="2IMKjfMsFiyMc3P6ZTSg-2" value="百草图文" style="rounded=1;whiteSpace=wrap;html=1;fontSize=15;fillColor=#dae8fc;strokeColor=#6c8ebf;" vertex="1" parent="1">
          <mxGeometry x="277" y="608" width="120" height="60" as="geometry" />
        </mxCell>
        <mxCell id="2IMKjfMsFiyMc3P6ZTSg-3" value="企鹅号视频" style="rounded=1;whiteSpace=wrap;html=1;fontSize=15;fillColor=#dae8fc;strokeColor=#6c8ebf;" vertex="1" parent="1">
          <mxGeometry x="277" y="692" width="120" height="60" as="geometry" />
        </mxCell>
        <mxCell id="2IMKjfMsFiyMc3P6ZTSg-4" value="媒资视频" style="rounded=1;whiteSpace=wrap;html=1;fontSize=15;fillColor=#dae8fc;strokeColor=#6c8ebf;" vertex="1" parent="1">
          <mxGeometry x="277" y="780" width="120" height="60" as="geometry" />
        </mxCell>
        <mxCell id="2IMKjfMsFiyMc3P6ZTSg-5" value="" style="rounded=1;whiteSpace=wrap;html=1;dashed=1;fontSize=15;strokeWidth=2;" vertex="1" parent="1">
          <mxGeometry x="487" y="465" width="220" height="560" as="geometry" />
        </mxCell>
        <mxCell id="2IMKjfMsFiyMc3P6ZTSg-6" value="接入流程" style="text;html=1;strokeColor=none;fillColor=none;align=center;verticalAlign=middle;whiteSpace=wrap;rounded=0;fontSize=15;" vertex="1" parent="1">
          <mxGeometry x="567" y="475" width="70" height="30" as="geometry" />
        </mxCell>
        <mxCell id="2IMKjfMsFiyMc3P6ZTSg-49" style="edgeStyle=orthogonalEdgeStyle;rounded=0;orthogonalLoop=1;jettySize=auto;html=1;exitX=0.5;exitY=1;exitDx=0;exitDy=0;entryX=0.5;entryY=0;entryDx=0;entryDy=0;fontSize=15;" edge="1" parent="1" source="2IMKjfMsFiyMc3P6ZTSg-7" target="2IMKjfMsFiyMc3P6ZTSg-11">
          <mxGeometry relative="1" as="geometry" />
        </mxCell>
        <mxCell id="2IMKjfMsFiyMc3P6ZTSg-7" value="前置过滤" style="ellipse;whiteSpace=wrap;html=1;fontFamily=Helvetica;fontSize=15;align=center;strokeColor=#C73500;fillColor=#fa6800;fontColor=#000000;" vertex="1" parent="1">
          <mxGeometry x="537" y="531" width="120" height="60" as="geometry" />
        </mxCell>
        <mxCell id="2IMKjfMsFiyMc3P6ZTSg-51" style="edgeStyle=orthogonalEdgeStyle;rounded=0;orthogonalLoop=1;jettySize=auto;html=1;exitX=0.5;exitY=1;exitDx=0;exitDy=0;entryX=0.5;entryY=0;entryDx=0;entryDy=0;fontSize=15;" edge="1" parent="1" source="2IMKjfMsFiyMc3P6ZTSg-8" target="2IMKjfMsFiyMc3P6ZTSg-9">
          <mxGeometry relative="1" as="geometry" />
        </mxCell>
        <mxCell id="2IMKjfMsFiyMc3P6ZTSg-8" value="字段整合" style="ellipse;whiteSpace=wrap;html=1;fontFamily=Helvetica;fontSize=15;align=center;strokeColor=#C73500;fillColor=#fa6800;fontColor=#000000;" vertex="1" parent="1">
          <mxGeometry x="537" y="733" width="120" height="60" as="geometry" />
        </mxCell>
        <mxCell id="2IMKjfMsFiyMc3P6ZTSg-52" style="edgeStyle=orthogonalEdgeStyle;rounded=0;orthogonalLoop=1;jettySize=auto;html=1;exitX=0.5;exitY=1;exitDx=0;exitDy=0;fontSize=15;" edge="1" parent="1" source="2IMKjfMsFiyMc3P6ZTSg-9" target="2IMKjfMsFiyMc3P6ZTSg-10">
          <mxGeometry relative="1" as="geometry" />
        </mxCell>
        <mxCell id="2IMKjfMsFiyMc3P6ZTSg-9" value="状态机" style="ellipse;whiteSpace=wrap;html=1;fontFamily=Helvetica;fontSize=15;align=center;strokeColor=#C73500;fillColor=#fa6800;fontColor=#000000;" vertex="1" parent="1">
          <mxGeometry x="537" y="834" width="120" height="60" as="geometry" />
        </mxCell>
        <mxCell id="2IMKjfMsFiyMc3P6ZTSg-10" value="推送星航管线" style="ellipse;whiteSpace=wrap;html=1;fontFamily=Helvetica;fontSize=15;align=center;strokeColor=#C73500;fillColor=#fa6800;fontColor=#000000;" vertex="1" parent="1">
          <mxGeometry x="537" y="935" width="120" height="60" as="geometry" />
        </mxCell>
        <mxCell id="2IMKjfMsFiyMc3P6ZTSg-50" style="edgeStyle=orthogonalEdgeStyle;rounded=0;orthogonalLoop=1;jettySize=auto;html=1;exitX=0.5;exitY=1;exitDx=0;exitDy=0;entryX=0.5;entryY=0;entryDx=0;entryDy=0;fontSize=15;" edge="1" parent="1" source="2IMKjfMsFiyMc3P6ZTSg-11" target="2IMKjfMsFiyMc3P6ZTSg-8">
          <mxGeometry relative="1" as="geometry" />
        </mxCell>
        <mxCell id="2IMKjfMsFiyMc3P6ZTSg-11" value="详情获取" style="ellipse;whiteSpace=wrap;html=1;fontFamily=Helvetica;fontSize=15;align=center;strokeColor=#C73500;fillColor=#fa6800;fontColor=#000000;" vertex="1" parent="1">
          <mxGeometry x="537" y="632" width="120" height="60" as="geometry" />
        </mxCell>
        <mxCell id="2IMKjfMsFiyMc3P6ZTSg-12" value="" style="rounded=1;whiteSpace=wrap;html=1;fontSize=15;dashed=1;strokeWidth=2;" vertex="1" parent="1">
          <mxGeometry x="807" y="460" width="140" height="565" as="geometry" />
        </mxCell>
        <mxCell id="2IMKjfMsFiyMc3P6ZTSg-13" value="星航管线中台" style="text;html=1;strokeColor=none;fillColor=none;align=center;verticalAlign=middle;whiteSpace=wrap;rounded=0;fontSize=15;" vertex="1" parent="1">
          <mxGeometry x="832" y="468" width="95" height="27" as="geometry" />
        </mxCell>
        <mxCell id="2IMKjfMsFiyMc3P6ZTSg-17" value="作者填充" style="ellipse;whiteSpace=wrap;html=1;fillColor=#ffe6cc;strokeColor=#d79b00;fontFamily=Times New Roman;fontSize=15;" vertex="1" parent="1">
          <mxGeometry x="832" y="834" width="90" height="47" as="geometry" />
        </mxCell>
        <mxCell id="2IMKjfMsFiyMc3P6ZTSg-18" value="字段标准化" style="ellipse;whiteSpace=wrap;html=1;fontFamily=Times New Roman;fontSize=15;fontColor=rgb(0, 0, 0);align=center;strokeColor=#d79b00;fillColor=#ffe6cc;" vertex="1" parent="1">
          <mxGeometry x="832" y="531" width="90" height="47" as="geometry" />
        </mxCell>
        <mxCell id="2IMKjfMsFiyMc3P6ZTSg-19" value="分类映射" style="ellipse;whiteSpace=wrap;html=1;fillColor=#ffe6cc;strokeColor=#d79b00;fontFamily=Times New Roman;fontSize=15;" vertex="1" parent="1">
          <mxGeometry x="832" y="632" width="90" height="47" as="geometry" />
        </mxCell>
        <mxCell id="2IMKjfMsFiyMc3P6ZTSg-20" value="标签映射" style="ellipse;whiteSpace=wrap;html=1;fillColor=#ffe6cc;strokeColor=#d79b00;fontFamily=Times New Roman;fontSize=15;" vertex="1" parent="1">
          <mxGeometry x="837" y="733" width="90" height="47" as="geometry" />
        </mxCell>
        <mxCell id="2IMKjfMsFiyMc3P6ZTSg-21" value="入池白名单" style="ellipse;whiteSpace=wrap;html=1;fillColor=#ffe6cc;strokeColor=#d79b00;fontFamily=Times New Roman;fontSize=15;" vertex="1" parent="1">
          <mxGeometry x="832" y="935" width="90" height="47" as="geometry" />
        </mxCell>
        <mxCell id="2IMKjfMsFiyMc3P6ZTSg-39" value="内容源" style="text;html=1;strokeColor=none;fillColor=none;align=center;verticalAlign=middle;whiteSpace=wrap;rounded=0;fontSize=15;" vertex="1" parent="1">
          <mxGeometry x="307" y="485" width="60" height="30" as="geometry" />
        </mxCell>
        <mxCell id="2IMKjfMsFiyMc3P6ZTSg-40" value="管理后台拉取" style="rounded=1;whiteSpace=wrap;html=1;fontSize=15;fillColor=#dae8fc;strokeColor=#6c8ebf;" vertex="1" parent="1">
          <mxGeometry x="277" y="875" width="120" height="60" as="geometry" />
        </mxCell>
        <mxCell id="2IMKjfMsFiyMc3P6ZTSg-41" value="人工手动重试" style="rounded=1;whiteSpace=wrap;html=1;fontSize=15;fillColor=#dae8fc;strokeColor=#6c8ebf;" vertex="1" parent="1">
          <mxGeometry x="277" y="965" width="120" height="60" as="geometry" />
        </mxCell>
        <mxCell id="2IMKjfMsFiyMc3P6ZTSg-56" value="" style="shape=flexArrow;endArrow=classic;html=1;rounded=0;fontSize=15;entryX=0;entryY=0.5;entryDx=0;entryDy=0;exitX=1;exitY=0.5;exitDx=0;exitDy=0;" edge="1" parent="1" source="2IMKjfMsFiyMc3P6ZTSg-5" target="2IMKjfMsFiyMc3P6ZTSg-12">
          <mxGeometry width="50" height="50" relative="1" as="geometry">
            <mxPoint x="717" y="743" as="sourcePoint" />
            <mxPoint x="757" y="755" as="targetPoint" />
          </mxGeometry>
        </mxCell>
        <mxCell id="2IMKjfMsFiyMc3P6ZTSg-75" value="接口" style="edgeLabel;html=1;align=center;verticalAlign=middle;resizable=0;points=[];fontSize=15;" vertex="1" connectable="0" parent="2IMKjfMsFiyMc3P6ZTSg-56">
          <mxGeometry x="-0.3569" y="6" relative="1" as="geometry">
            <mxPoint x="9" y="4" as="offset" />
          </mxGeometry>
        </mxCell>
        <mxCell id="2IMKjfMsFiyMc3P6ZTSg-57" value="" style="shape=flexArrow;endArrow=classic;html=1;rounded=0;fontSize=15;exitX=1;exitY=0.5;exitDx=0;exitDy=0;entryX=-0.014;entryY=0.948;entryDx=0;entryDy=0;entryPerimeter=0;" edge="1" parent="1" source="2IMKjfMsFiyMc3P6ZTSg-41" target="2IMKjfMsFiyMc3P6ZTSg-5">
          <mxGeometry width="50" height="50" relative="1" as="geometry">
            <mxPoint x="457" y="1025" as="sourcePoint" />
            <mxPoint x="477" y="995" as="targetPoint" />
          </mxGeometry>
        </mxCell>
        <mxCell id="2IMKjfMsFiyMc3P6ZTSg-74" value="接口" style="edgeLabel;html=1;align=center;verticalAlign=middle;resizable=0;points=[];fontSize=15;" vertex="1" connectable="0" parent="2IMKjfMsFiyMc3P6ZTSg-57">
          <mxGeometry x="-0.333" y="1" relative="1" as="geometry">
            <mxPoint as="offset" />
          </mxGeometry>
        </mxCell>
        <mxCell id="2IMKjfMsFiyMc3P6ZTSg-59" value="" style="shape=flexArrow;endArrow=classic;html=1;rounded=0;fontSize=15;exitX=1;exitY=0.5;exitDx=0;exitDy=0;entryX=0.009;entryY=0.786;entryDx=0;entryDy=0;entryPerimeter=0;" edge="1" parent="1" source="2IMKjfMsFiyMc3P6ZTSg-40" target="2IMKjfMsFiyMc3P6ZTSg-5">
          <mxGeometry width="50" height="50" relative="1" as="geometry">
            <mxPoint x="417" y="945" as="sourcePoint" />
            <mxPoint x="467" y="895" as="targetPoint" />
          </mxGeometry>
        </mxCell>
        <mxCell id="2IMKjfMsFiyMc3P6ZTSg-73" value="接口" style="edgeLabel;html=1;align=center;verticalAlign=middle;resizable=0;points=[];fontSize=15;" vertex="1" connectable="0" parent="2IMKjfMsFiyMc3P6ZTSg-59">
          <mxGeometry x="-0.2825" y="2" relative="1" as="geometry">
            <mxPoint as="offset" />
          </mxGeometry>
        </mxCell>
        <mxCell id="2IMKjfMsFiyMc3P6ZTSg-60" value="" style="shape=flexArrow;endArrow=classic;html=1;rounded=0;fontSize=15;" edge="1" parent="1" source="2IMKjfMsFiyMc3P6ZTSg-38">
          <mxGeometry width="50" height="50" relative="1" as="geometry">
            <mxPoint x="417" y="710" as="sourcePoint" />
            <mxPoint x="487.71067811865476" y="660" as="targetPoint" />
          </mxGeometry>
        </mxCell>
        <mxCell id="2IMKjfMsFiyMc3P6ZTSg-72" value="kafka" style="edgeLabel;html=1;align=center;verticalAlign=middle;resizable=0;points=[];fontSize=15;" vertex="1" connectable="0" parent="2IMKjfMsFiyMc3P6ZTSg-60">
          <mxGeometry x="-0.3212" relative="1" as="geometry">
            <mxPoint as="offset" />
          </mxGeometry>
        </mxCell>
        <mxCell id="2IMKjfMsFiyMc3P6ZTSg-62" value="" style="rounded=1;whiteSpace=wrap;html=1;fontSize=15;dashed=1;" vertex="1" parent="1">
          <mxGeometry x="1037" y="465" width="140" height="565" as="geometry" />
        </mxCell>
        <mxCell id="2IMKjfMsFiyMc3P6ZTSg-64" value="接出系统" style="text;html=1;strokeColor=none;fillColor=none;align=center;verticalAlign=middle;whiteSpace=wrap;rounded=0;fontSize=15;" vertex="1" parent="1">
          <mxGeometry x="1057" y="478" width="95" height="27" as="geometry" />
        </mxCell>
        <mxCell id="2IMKjfMsFiyMc3P6ZTSg-65" value="" style="shape=flexArrow;endArrow=classic;html=1;rounded=0;fontSize=15;exitX=1.014;exitY=0.513;exitDx=0;exitDy=0;entryX=0;entryY=0.5;entryDx=0;entryDy=0;exitPerimeter=0;" edge="1" parent="1" source="2IMKjfMsFiyMc3P6ZTSg-12" target="2IMKjfMsFiyMc3P6ZTSg-62">
          <mxGeometry width="50" height="50" relative="1" as="geometry">
            <mxPoint x="957" y="775" as="sourcePoint" />
            <mxPoint x="1007" y="725" as="targetPoint" />
          </mxGeometry>
        </mxCell>
        <mxCell id="2IMKjfMsFiyMc3P6ZTSg-66" value="kafka" style="edgeLabel;html=1;align=center;verticalAlign=middle;resizable=0;points=[];fontSize=15;" vertex="1" connectable="0" parent="2IMKjfMsFiyMc3P6ZTSg-65">
          <mxGeometry x="0.2942" y="-3" relative="1" as="geometry">
            <mxPoint x="-19" y="-4" as="offset" />
          </mxGeometry>
        </mxCell>
        <mxCell id="2IMKjfMsFiyMc3P6ZTSg-67" value="diff日志" style="rounded=1;whiteSpace=wrap;html=1;fontSize=15;fillColor=#f8cecc;strokeColor=#b85450;" vertex="1" parent="1">
          <mxGeometry x="1044.5" y="525" width="120" height="60" as="geometry" />
        </mxCell>
        <mxCell id="2IMKjfMsFiyMc3P6ZTSg-68" value="构建索引" style="rounded=1;whiteSpace=wrap;html=1;fontSize=15;fillColor=#f8cecc;strokeColor=#b85450;" vertex="1" parent="1">
          <mxGeometry x="1047" y="628" width="120" height="60" as="geometry" />
        </mxCell>
        <mxCell id="2IMKjfMsFiyMc3P6ZTSg-69" value="同步es" style="rounded=1;whiteSpace=wrap;html=1;fontSize=15;fillColor=#f8cecc;strokeColor=#b85450;" vertex="1" parent="1">
          <mxGeometry x="1047" y="730" width="120" height="60" as="geometry" />
        </mxCell>
        <mxCell id="2IMKjfMsFiyMc3P6ZTSg-70" value="文章计数器" style="rounded=1;whiteSpace=wrap;html=1;fontSize=15;fillColor=#f8cecc;strokeColor=#b85450;" vertex="1" parent="1">
          <mxGeometry x="1047" y="833" width="120" height="60" as="geometry" />
        </mxCell>
        <mxCell id="2IMKjfMsFiyMc3P6ZTSg-71" value="点赞计数器" style="rounded=1;whiteSpace=wrap;html=1;fontSize=15;fillColor=#f8cecc;strokeColor=#b85450;" vertex="1" parent="1">
          <mxGeometry x="1044.5" y="935" width="120" height="60" as="geometry" />
        </mxCell>
        <mxCell id="2IMKjfMsFiyMc3P6ZTSg-76" value="" style="rounded=1;whiteSpace=wrap;html=1;dashed=1;fontSize=15;" vertex="1" parent="1">
          <mxGeometry x="267" y="1075" width="1130" height="130" as="geometry" />
        </mxCell>
        <mxCell id="2IMKjfMsFiyMc3P6ZTSg-77" value="" style="endArrow=none;html=1;rounded=0;fontSize=15;" edge="1" parent="1">
          <mxGeometry width="50" height="50" relative="1" as="geometry">
            <mxPoint x="247" y="1055" as="sourcePoint" />
            <mxPoint x="1407" y="1055" as="targetPoint" />
          </mxGeometry>
        </mxCell>
        <mxCell id="2IMKjfMsFiyMc3P6ZTSg-78" value="" style="rounded=1;whiteSpace=wrap;html=1;fontSize=15;dashed=1;" vertex="1" parent="1">
          <mxGeometry x="1257" y="468" width="140" height="565" as="geometry" />
        </mxCell>
        <mxCell id="2IMKjfMsFiyMc3P6ZTSg-79" value="使用场景" style="text;html=1;strokeColor=none;fillColor=none;align=center;verticalAlign=middle;whiteSpace=wrap;rounded=0;fontSize=15;" vertex="1" parent="1">
          <mxGeometry x="1277" y="481" width="95" height="27" as="geometry" />
        </mxCell>
        <mxCell id="2IMKjfMsFiyMc3P6ZTSg-80" value="分赛事页卡" style="rounded=1;whiteSpace=wrap;html=1;fontSize=15;" vertex="1" parent="1">
          <mxGeometry x="1264.5" y="528" width="120" height="60" as="geometry" />
        </mxCell>
        <mxCell id="2IMKjfMsFiyMc3P6ZTSg-81" value="个人主页" style="rounded=1;whiteSpace=wrap;html=1;fontSize=15;" vertex="1" parent="1">
          <mxGeometry x="1267" y="631" width="120" height="60" as="geometry" />
        </mxCell>
        <mxCell id="2IMKjfMsFiyMc3P6ZTSg-82" value="比赛&amp;amp;话题底层页" style="rounded=1;whiteSpace=wrap;html=1;fontSize=15;" vertex="1" parent="1">
          <mxGeometry x="1267" y="733" width="120" height="60" as="geometry" />
        </mxCell>
        <mxCell id="2IMKjfMsFiyMc3P6ZTSg-83" value="球员球队底层页" style="rounded=1;whiteSpace=wrap;html=1;fontSize=15;" vertex="1" parent="1">
          <mxGeometry x="1267" y="836" width="120" height="60" as="geometry" />
        </mxCell>
        <mxCell id="2IMKjfMsFiyMc3P6ZTSg-84" value="管理后台" style="rounded=1;whiteSpace=wrap;html=1;fontSize=15;" vertex="1" parent="1">
          <mxGeometry x="1264.5" y="938" width="120" height="60" as="geometry" />
        </mxCell>
        <mxCell id="2IMKjfMsFiyMc3P6ZTSg-87" value="" style="shape=flexArrow;endArrow=classic;html=1;rounded=0;fontSize=15;entryX=-0.036;entryY=0.49;entryDx=0;entryDy=0;entryPerimeter=0;" edge="1" parent="1" source="2IMKjfMsFiyMc3P6ZTSg-62" target="2IMKjfMsFiyMc3P6ZTSg-78">
          <mxGeometry width="50" height="50" relative="1" as="geometry">
            <mxPoint x="1177" y="797.5" as="sourcePoint" />
            <mxPoint x="1247.7106781186549" y="747.5" as="targetPoint" />
          </mxGeometry>
        </mxCell>
        <mxCell id="2IMKjfMsFiyMc3P6ZTSg-88" value="接口" style="edgeLabel;html=1;align=center;verticalAlign=middle;resizable=0;points=[];fontSize=15;" vertex="1" connectable="0" parent="2IMKjfMsFiyMc3P6ZTSg-87">
          <mxGeometry x="-0.3607" y="-2" relative="1" as="geometry">
            <mxPoint x="4" y="-2" as="offset" />
          </mxGeometry>
        </mxCell>
        <mxCell id="2IMKjfMsFiyMc3P6ZTSg-91" value="存储" style="text;html=1;strokeColor=none;fillColor=none;align=center;verticalAlign=middle;whiteSpace=wrap;rounded=0;dashed=1;fontSize=15;" vertex="1" parent="1">
          <mxGeometry x="287" y="1125" width="60" height="30" as="geometry" />
        </mxCell>
        <mxCell id="2IMKjfMsFiyMc3P6ZTSg-92" value="MYSQL" style="shape=datastore;whiteSpace=wrap;html=1;fontSize=15;fillColor=#b1ddf0;strokeColor=#10739e;" vertex="1" parent="1">
          <mxGeometry x="397" y="1110" width="60" height="60" as="geometry" />
        </mxCell>
        <mxCell id="2IMKjfMsFiyMc3P6ZTSg-93" value="TDSQL" style="shape=datastore;whiteSpace=wrap;html=1;fontSize=15;fillColor=#b1ddf0;strokeColor=#10739e;" vertex="1" parent="1">
          <mxGeometry x="617" y="1110" width="60" height="60" as="geometry" />
        </mxCell>
        <mxCell id="2IMKjfMsFiyMc3P6ZTSg-94" value="redis" style="shape=datastore;whiteSpace=wrap;html=1;fontSize=15;fillColor=#b1ddf0;strokeColor=#10739e;" vertex="1" parent="1">
          <mxGeometry x="837" y="1110" width="60" height="60" as="geometry" />
        </mxCell>
        <mxCell id="2IMKjfMsFiyMc3P6ZTSg-95" value="kafka" style="shape=datastore;whiteSpace=wrap;html=1;fontSize=15;fillColor=#b1ddf0;strokeColor=#10739e;" vertex="1" parent="1">
          <mxGeometry x="1057" y="1110" width="60" height="60" as="geometry" />
        </mxCell>
        <mxCell id="2IMKjfMsFiyMc3P6ZTSg-96" value="es" style="shape=datastore;whiteSpace=wrap;html=1;fontSize=15;fillColor=#b1ddf0;strokeColor=#10739e;" vertex="1" parent="1">
          <mxGeometry x="1277" y="1110" width="60" height="60" as="geometry" />
        </mxCell>
        <mxCell id="2IMKjfMsFiyMc3P6ZTSg-97" value="" style="endArrow=none;html=1;rounded=0;fontSize=15;" edge="1" parent="1">
          <mxGeometry width="50" height="50" relative="1" as="geometry">
            <mxPoint x="250" y="450" as="sourcePoint" />
            <mxPoint x="1400" y="450" as="targetPoint" />
          </mxGeometry>
        </mxCell>
        <mxCell id="2IMKjfMsFiyMc3P6ZTSg-98" value="" style="rounded=1;whiteSpace=wrap;html=1;fontSize=15;dashed=1;" vertex="1" parent="1">
          <mxGeometry x="250" y="350" width="1140" height="90" as="geometry" />
        </mxCell>
        <mxCell id="2IMKjfMsFiyMc3P6ZTSg-99" value="天机阁2.0" style="rounded=1;whiteSpace=wrap;html=1;fontSize=15;fillColor=#6d8764;strokeColor=#3A5431;fontColor=#ffffff;" vertex="1" parent="1">
          <mxGeometry x="410" y="365" width="120" height="60" as="geometry" />
        </mxCell>
        <mxCell id="2IMKjfMsFiyMc3P6ZTSg-100" value="007告警" style="rounded=1;whiteSpace=wrap;html=1;fontSize=15;fillColor=#6d8764;strokeColor=#3A5431;fontColor=#ffffff;" vertex="1" parent="1">
          <mxGeometry x="613" y="365" width="120" height="60" as="geometry" />
        </mxCell>
        <mxCell id="2IMKjfMsFiyMc3P6ZTSg-101" value="鹰眼" style="rounded=1;whiteSpace=wrap;html=1;fontSize=15;fillColor=#6d8764;strokeColor=#3A5431;fontColor=#ffffff;" vertex="1" parent="1">
          <mxGeometry x="815" y="365" width="120" height="60" as="geometry" />
        </mxCell>
        <mxCell id="2IMKjfMsFiyMc3P6ZTSg-102" value="&lt;span style=&quot;font-family: &amp;quot;times new roman&amp;quot;; font-size: 15px;&quot;&gt;企微机器人告警&lt;/span&gt;" style="rounded=1;whiteSpace=wrap;html=1;fontSize=15;fillColor=#6d8764;strokeColor=#3A5431;fontColor=#ffffff;" vertex="1" parent="1">
          <mxGeometry x="1220" y="365" width="120" height="60" as="geometry" />
        </mxCell>
        <mxCell id="2IMKjfMsFiyMc3P6ZTSg-103" value="监&lt;br style=&quot;font-size: 15px;&quot;&gt;控&lt;br style=&quot;font-size: 15px;&quot;&gt;告&lt;br style=&quot;font-size: 15px;&quot;&gt;警" style="text;html=1;strokeColor=none;fillColor=none;align=center;verticalAlign=middle;whiteSpace=wrap;rounded=0;fontSize=15;" vertex="1" parent="1">
          <mxGeometry x="267" y="380" width="60" height="30" as="geometry" />
        </mxCell>
        <mxCell id="2IMKjfMsFiyMc3P6ZTSg-104" value="kafka告警" style="rounded=1;whiteSpace=wrap;html=1;fontSize=15;fillColor=#6d8764;strokeColor=#3A5431;fontColor=#ffffff;" vertex="1" parent="1">
          <mxGeometry x="1018" y="365" width="120" height="60" as="geometry" />
        </mxCell>
      </root>
    </mxGraphModel>
  </diagram>
</mxfile>
